<svg width="40" height="40" viewBox="0 0 40 40" fill="none" xmlns="http://www.w3.org/2000/svg">
<g clip-path="url(#clip0_277_3873)">
<circle cx="20" cy="20" r="20" transform="rotate(-180 20 20)" fill="#FFB7D8"/>
<circle cx="20" cy="20" r="17" transform="rotate(-180 20 20)" fill="#750CD6"/>
<circle cx="20" cy="20" r="14" transform="rotate(-180 20 20)" fill="#0098DB"/>
<circle cx="20" cy="20" r="11" transform="rotate(-180 20 20)" fill="#78C301"/>
<circle cx="20" cy="20" r="8" transform="rotate(-180 20 20)" fill="#F5CF3E"/>
<circle cx="20" cy="20" r="5" transform="rotate(-180 20 20)" fill="#FE6C37"/>
<circle cx="20" cy="20" r="2" transform="rotate(-180 20 20)" fill="#DE2826"/>
<rect x="40" y="20" width="3" height="21" transform="rotate(-180 40 20)" fill="#FFB7D8"/>
<rect x="3" y="20" width="3" height="21" transform="rotate(-180 3 20)" fill="#FFB7D8"/>
<rect x="37" y="20" width="3" height="21" transform="rotate(-180 37 20)" fill="#750CD6"/>
<rect x="6" y="20" width="3" height="21" transform="rotate(-180 6 20)" fill="#750CD6"/>
<rect x="34" y="20" width="3" height="21" transform="rotate(-180 34 20)" fill="#0098DB"/>
<rect x="9" y="20" width="3" height="21" transform="rotate(-180 9 20)" fill="#0098DB"/>
<rect x="31" y="20" width="3" height="21" transform="rotate(-180 31 20)" fill="#78C301"/>
<rect x="12" y="20" width="3" height="21" transform="rotate(-180 12 20)" fill="#78C301"/>
<rect x="28" y="20" width="3" height="21" transform="rotate(-180 28 20)" fill="#F5CF3E"/>
<rect x="15" y="20" width="3" height="21" transform="rotate(-180 15 20)" fill="#F5CF3E"/>
<rect x="25" y="20" width="3" height="21" transform="rotate(-180 25 20)" fill="#FE6C37"/>
<rect x="18" y="20" width="3" height="21" transform="rotate(-180 18 20)" fill="#FE6C37"/>
<rect x="22" y="20" width="4" height="21" transform="rotate(-180 22 20)" fill="#DE2826"/>
<rect width="40" height="40" fill="url(#paint0_linear_277_3873)"/>
</g>
<defs>
<linearGradient id="paint0_linear_277_3873" x1="20" y1="0" x2="20" y2="40" gradientUnits="userSpaceOnUse">
<stop stop-opacity="0"/>
<stop offset="1" stop-opacity="0.2"/>
</linearGradient>
<clipPath id="clip0_277_3873">
<rect x="40" y="40" width="40" height="40" rx="20" transform="rotate(-180 40 40)" fill="white"/>
</clipPath>
</defs>
</svg>
